<svg width="229" height="229" viewBox="0 0 229 229" fill="none" xmlns="http://www.w3.org/2000/svg">
<rect x="21" y="108.745" width="129" height="133" transform="rotate(-44.7047 21 108.745)" fill="white"/>
<path d="M8 108.5L24 125.5L25.5 123.172V96H21L8 108.5Z" fill="#DAC400" stroke="#DAC400"/>
<path d="M155 62.5L115.5 23L76 62.5L68 51.5L116 4L163.5 51.5L155 62.5Z" fill="#DAC400"/>
<path d="M153.5 158.212L113 196.5L76.5 158.211H55.1953L113 216.5L173.195 158.212H153.5Z" fill="#DAC400"/>
<path d="M155 62.5L115.5 23L76 62.5L68 51.5L116 4L163.5 51.5L155 62.5Z" stroke="#DAC400"/>
<path d="M153.5 158.212L113 196.5L76.5 158.211H55.1953L113 216.5L173.195 158.212H153.5Z" stroke="#DAC400"/>
<path d="M214.5 155H12.5V148.5L214.5 148.5V155Z" fill="#1E6640" stroke="#1E6640"/>
<path d="M213.5 145.5L13.5 145.5L28 125C122.5 162 201 125 201 125L213.5 145.5Z" fill="#1E6640" stroke="#1E6640"/>
<path d="M69 105.5L115 30.5L161.226 105.5H69Z" fill="#1E6640" stroke="#1E6640"/>
<path d="M23.5 93L59.6533 44L83 76.5L80 81.5L77 86.5L73.1584 93H23.5Z" fill="#1E6640" stroke="#1E6640"/>
<path d="M205 90.5L172.347 44L147 77.5L150 82.5L153 87L155 90.5H205Z" fill="#1E6640" stroke="#1E6640"/>
<path d="M89.5 108H75.7895V134.5H154.5V108.214H140.878V115H89.5V108Z" fill="#C0C0C0" stroke="#C0C0C0"/>
<path d="M71.5 96H28.6274V96.6486H43.7902V122.24H72.8008V108.5H52V96.6486H68V102L71.5 96Z" fill="#C0C0C0" stroke="#C0C0C0"/>
<path d="M200.252 94H157L159.5 98H163H170.5V122H200.235V109.5H182.5V98.5H198V109H200.235L200.252 94Z" fill="#C0C0C0" stroke="#C0C0C0"/>
<path d="M220.5 106.5L204 124.5L203.5 123.5L203 94H207.5L220.5 106.5Z" fill="#DAC400" stroke="#DAC400"/>
<g filter="url(#filter0_d_102_3)">
<path d="M85 76.5L74.2971 94.3404M85 76.5L115.029 28.4429L145.146 77.5513M85 76.5L66.6379 51.1083M74.2971 94.3404H26.9829M74.2971 94.3404L66.8914 106.932M20.4 94.3404L59.4857 41.4545L66.6379 51.1083M20.4 94.3404H26.9829M20.4 94.3404L6 108.611L24 128M26.9829 94.3404V98.118M26.9829 123.721V98.118M26.9829 123.721H42.2057M26.9829 123.721L24 128M74.2971 123.721V106.932M74.2971 123.721V135.894H155.76V123.721M74.2971 123.721H42.2057M74.2971 106.932H66.8914M74.2971 106.932H90.7543M66.8914 106.932V98.118H52.9029V106.932H66.8914ZM155.76 106.932V123.721M155.76 106.932H139.303M155.76 106.932H163.166L158.661 99.587M145.146 77.5513L154.156 92.2418M145.146 77.5513L165 51.1083M208 92.2418L172.217 41.4545L165 51.1083M208 92.2418H202M208 92.2418L222.5 106.932L204 127M154.156 92.2418L158.661 99.587M154.156 92.2418H202M158.661 99.587H168.926V123.721M168.926 123.721H155.76M168.926 123.721H201.897M201.897 123.721L202 92.2418M201.897 123.721L204 127M215.829 146.807H111.737H10.9371M215.829 146.807L204 127M215.829 146.807V156.46H177.5M10.9371 146.807V156.46H51M10.9371 146.807L24 128M26.9829 98.118H42.2057V123.721M90.7543 106.932V113.648H115.029M90.7543 106.932H115.029M139.303 106.932V113.648H115.029M139.303 106.932H115.029M115.029 106.932V113.648M66.6379 51.1083L116 2L165 51.1083M51 156.46H111.737H177.5M51 156.46L112.971 219L177.5 156.46M183.326 99.587H197.314V108.611H183.326V99.587Z" stroke="black" stroke-width="2.5" shape-rendering="crispEdges"/>
</g>
<defs>
<filter id="filter0_d_102_3" x="0.260757" y="0.233536" width="227.967" height="228.524" filterUnits="userSpaceOnUse" color-interpolation-filters="sRGB">
<feFlood flood-opacity="0" result="BackgroundImageFix"/>
<feColorMatrix in="SourceAlpha" type="matrix" values="0 0 0 0 0 0 0 0 0 0 0 0 0 0 0 0 0 0 127 0" result="hardAlpha"/>
<feOffset dy="4"/>
<feGaussianBlur stdDeviation="2"/>
<feComposite in2="hardAlpha" operator="out"/>
<feColorMatrix type="matrix" values="0 0 0 0 0 0 0 0 0 0 0 0 0 0 0 0 0 0 0.25 0"/>
<feBlend mode="normal" in2="BackgroundImageFix" result="effect1_dropShadow_102_3"/>
<feBlend mode="normal" in="SourceGraphic" in2="effect1_dropShadow_102_3" result="shape"/>
</filter>
</defs>
</svg>
